<svg width="100" height="10" viewBox="0 0 100 10" fill="none" xmlns="http://www.w3.org/2000/svg">
<path d="M0.849609 9V0.410156H3.44531L5.00391 6.26953L6.54492 0.410156H9.14648V9H7.53516V2.23828L5.83008 9H4.16016L2.46094 2.23828V9H0.849609ZM12.0879 4.67578L10.5938 4.40625C10.7617 3.80469 11.0508 3.35938 11.4609 3.07031C11.8711 2.78125 12.4805 2.63672 13.2891 2.63672C14.0234 2.63672 14.5703 2.72461 14.9297 2.90039C15.2891 3.07227 15.541 3.29297 15.6855 3.5625C15.834 3.82812 15.9082 4.31836 15.9082 5.0332L15.8906 6.95508C15.8906 7.50195 15.916 7.90625 15.9668 8.16797C16.0215 8.42578 16.1211 8.70312 16.2656 9H14.6367C14.5938 8.89062 14.541 8.72852 14.4785 8.51367C14.4512 8.41602 14.4316 8.35156 14.4199 8.32031C14.1387 8.59375 13.8379 8.79883 13.5176 8.93555C13.1973 9.07227 12.8555 9.14062 12.4922 9.14062C11.8516 9.14062 11.3457 8.9668 10.9746 8.61914C10.6074 8.27148 10.4238 7.83203 10.4238 7.30078C10.4238 6.94922 10.5078 6.63672 10.6758 6.36328C10.8438 6.08594 11.0781 5.875 11.3789 5.73047C11.6836 5.58203 12.1211 5.45312 12.6914 5.34375C13.4609 5.19922 13.9941 5.06445 14.291 4.93945V4.77539C14.291 4.45898 14.2129 4.23438 14.0566 4.10156C13.9004 3.96484 13.6055 3.89648 13.1719 3.89648C12.8789 3.89648 12.6504 3.95508 12.4863 4.07227C12.3223 4.18555 12.1895 4.38672 12.0879 4.67578ZM14.291 6.01172C14.0801 6.08203 13.7461 6.16602 13.2891 6.26367C12.832 6.36133 12.5332 6.45703 12.3926 6.55078C12.1777 6.70312 12.0703 6.89648 12.0703 7.13086C12.0703 7.36133 12.1562 7.56055 12.3281 7.72852C12.5 7.89648 12.7188 7.98047 12.9844 7.98047C13.2812 7.98047 13.5645 7.88281 13.834 7.6875C14.0332 7.53906 14.1641 7.35742 14.2266 7.14258C14.2695 7.00195 14.291 6.73438 14.291 6.33984V6.01172ZM23.2441 9H21.7148V8.08594C21.4609 8.44141 21.1602 8.70703 20.8125 8.88281C20.4688 9.05469 20.1211 9.14062 19.7695 9.14062C19.0547 9.14062 18.4414 8.85352 17.9297 8.2793C17.4219 7.70117 17.168 6.89648 17.168 5.86523C17.168 4.81055 17.416 4.00977 17.9121 3.46289C18.4082 2.91211 19.0352 2.63672 19.793 2.63672C20.4883 2.63672 21.0898 2.92578 21.5977 3.50391V0.410156H23.2441V9ZM18.8496 5.75391C18.8496 6.41797 18.9414 6.89844 19.125 7.19531C19.3906 7.625 19.7617 7.83984 20.2383 7.83984C20.6172 7.83984 20.9395 7.67969 21.2051 7.35938C21.4707 7.03516 21.6035 6.55273 21.6035 5.91211C21.6035 5.19727 21.4746 4.68359 21.2168 4.37109C20.959 4.05469 20.6289 3.89648 20.2266 3.89648C19.8359 3.89648 19.5078 4.05273 19.2422 4.36523C18.9805 4.67383 18.8496 5.13672 18.8496 5.75391ZM28.4766 7.01953L30.1172 7.29492C29.9062 7.89648 29.5723 8.35547 29.1152 8.67188C28.6621 8.98438 28.0938 9.14062 27.4102 9.14062C26.3281 9.14062 25.5273 8.78711 25.0078 8.08008C24.5977 7.51367 24.3926 6.79883 24.3926 5.93555C24.3926 4.9043 24.6621 4.09766 25.2012 3.51562C25.7402 2.92969 26.4219 2.63672 27.2461 2.63672C28.1719 2.63672 28.9023 2.94336 29.4375 3.55664C29.9727 4.16602 30.2285 5.10156 30.2051 6.36328H26.0801C26.0918 6.85156 26.2246 7.23242 26.4785 7.50586C26.7324 7.77539 27.0488 7.91016 27.4277 7.91016C27.6855 7.91016 27.9023 7.83984 28.0781 7.69922C28.2539 7.55859 28.3867 7.33203 28.4766 7.01953ZM28.5703 5.35547C28.5586 4.87891 28.4355 4.51758 28.2012 4.27148C27.9668 4.02148 27.6816 3.89648 27.3457 3.89648C26.9863 3.89648 26.6895 4.02734 26.4551 4.28906C26.2207 4.55078 26.1055 4.90625 26.1094 5.35547H28.5703ZM36.123 4.67578L34.6289 4.40625C34.7969 3.80469 35.0859 3.35938 35.4961 3.07031C35.9062 2.78125 36.5156 2.63672 37.3242 2.63672C38.0586 2.63672 38.6055 2.72461 38.9648 2.90039C39.3242 3.07227 39.5762 3.29297 39.7207 3.5625C39.8691 3.82812 39.9434 4.31836 39.9434 5.0332L39.9258 6.95508C39.9258 7.50195 39.9512 7.90625 40.002 8.16797C40.0566 8.42578 40.1562 8.70312 40.3008 9H38.6719C38.6289 8.89062 38.5762 8.72852 38.5137 8.51367C38.4863 8.41602 38.4668 8.35156 38.4551 8.32031C38.1738 8.59375 37.873 8.79883 37.5527 8.93555C37.2324 9.07227 36.8906 9.14062 36.5273 9.14062C35.8867 9.14062 35.3809 8.9668 35.0098 8.61914C34.6426 8.27148 34.459 7.83203 34.459 7.30078C34.459 6.94922 34.543 6.63672 34.7109 6.36328C34.8789 6.08594 35.1133 5.875 35.4141 5.73047C35.7188 5.58203 36.1562 5.45312 36.7266 5.34375C37.4961 5.19922 38.0293 5.06445 38.3262 4.93945V4.77539C38.3262 4.45898 38.248 4.23438 38.0918 4.10156C37.9355 3.96484 37.6406 3.89648 37.207 3.89648C36.9141 3.89648 36.6855 3.95508 36.5215 4.07227C36.3574 4.18555 36.2246 4.38672 36.123 4.67578ZM38.3262 6.01172C38.1152 6.08203 37.7812 6.16602 37.3242 6.26367C36.8672 6.36133 36.5684 6.45703 36.4277 6.55078C36.2129 6.70312 36.1055 6.89648 36.1055 7.13086C36.1055 7.36133 36.1914 7.56055 36.3633 7.72852C36.5352 7.89648 36.7539 7.98047 37.0195 7.98047C37.3164 7.98047 37.5996 7.88281 37.8691 7.6875C38.0684 7.53906 38.1992 7.35742 38.2617 7.14258C38.3047 7.00195 38.3262 6.73438 38.3262 6.33984V6.01172ZM44.4258 2.77734V4.08984H43.3008V6.59766C43.3008 7.10547 43.3105 7.40234 43.3301 7.48828C43.3535 7.57031 43.4023 7.63867 43.4766 7.69336C43.5547 7.74805 43.6484 7.77539 43.7578 7.77539C43.9102 7.77539 44.1309 7.72266 44.4199 7.61719L44.5605 8.89453C44.1777 9.05859 43.7441 9.14062 43.2598 9.14062C42.9629 9.14062 42.6953 9.0918 42.457 8.99414C42.2188 8.89258 42.043 8.76367 41.9297 8.60742C41.8203 8.44727 41.7441 8.23242 41.7012 7.96289C41.666 7.77148 41.6484 7.38477 41.6484 6.80273V4.08984H40.8926V2.77734H41.6484V1.54102L43.3008 0.580078V2.77734H44.4258ZM48.8672 9V0.410156H50.6016V9H48.8672ZM53.8242 9H52.1777V2.77734H53.707V3.66211C53.9688 3.24414 54.2031 2.96875 54.4102 2.83594C54.6211 2.70312 54.8594 2.63672 55.125 2.63672C55.5 2.63672 55.8613 2.74023 56.209 2.94727L55.6992 4.38281C55.4219 4.20312 55.1641 4.11328 54.9258 4.11328C54.6953 4.11328 54.5 4.17773 54.3398 4.30664C54.1797 4.43164 54.0527 4.66016 53.959 4.99219C53.8691 5.32422 53.8242 6.01953 53.8242 7.07812V9ZM56.543 5.80078C56.543 5.25391 56.6777 4.72461 56.9473 4.21289C57.2168 3.70117 57.5977 3.31055 58.0898 3.04102C58.5859 2.77148 59.1387 2.63672 59.748 2.63672C60.6895 2.63672 61.4609 2.94336 62.0625 3.55664C62.6641 4.16602 62.9648 4.9375 62.9648 5.87109C62.9648 6.8125 62.6602 7.59375 62.0508 8.21484C61.4453 8.83203 60.6816 9.14062 59.7598 9.14062C59.1895 9.14062 58.6445 9.01172 58.125 8.75391C57.6094 8.49609 57.2168 8.11914 56.9473 7.62305C56.6777 7.12305 56.543 6.51562 56.543 5.80078ZM58.2305 5.88867C58.2305 6.50586 58.377 6.97852 58.6699 7.30664C58.9629 7.63477 59.3242 7.79883 59.7539 7.79883C60.1836 7.79883 60.543 7.63477 60.832 7.30664C61.125 6.97852 61.2715 6.50195 61.2715 5.87695C61.2715 5.26758 61.125 4.79883 60.832 4.4707C60.543 4.14258 60.1836 3.97852 59.7539 3.97852C59.3242 3.97852 58.9629 4.14258 58.6699 4.4707C58.377 4.79883 58.2305 5.27148 58.2305 5.88867ZM69.9199 9H68.2734V5.82422C68.2734 5.15234 68.2383 4.71875 68.168 4.52344C68.0977 4.32422 67.9824 4.16992 67.8223 4.06055C67.666 3.95117 67.4766 3.89648 67.2539 3.89648C66.9688 3.89648 66.7129 3.97461 66.4863 4.13086C66.2598 4.28711 66.1035 4.49414 66.0176 4.75195C65.9355 5.00977 65.8945 5.48633 65.8945 6.18164V9H64.248V2.77734H65.7773V3.69141C66.3203 2.98828 67.0039 2.63672 67.8281 2.63672C68.1914 2.63672 68.5234 2.70312 68.8242 2.83594C69.125 2.96484 69.3516 3.13086 69.5039 3.33398C69.6602 3.53711 69.7676 3.76758 69.8262 4.02539C69.8887 4.2832 69.9199 4.65234 69.9199 5.13281V9ZM71.6133 9V0.410156H73.3477V3.79102H76.7461V0.410156H78.4805V9H76.7461V5.24414H73.3477V9H71.6133ZM81.498 4.67578L80.0039 4.40625C80.1719 3.80469 80.4609 3.35938 80.8711 3.07031C81.2812 2.78125 81.8906 2.63672 82.6992 2.63672C83.4336 2.63672 83.9805 2.72461 84.3398 2.90039C84.6992 3.07227 84.9512 3.29297 85.0957 3.5625C85.2441 3.82812 85.3184 4.31836 85.3184 5.0332L85.3008 6.95508C85.3008 7.50195 85.3262 7.90625 85.377 8.16797C85.4316 8.42578 85.5312 8.70312 85.6758 9H84.0469C84.0039 8.89062 83.9512 8.72852 83.8887 8.51367C83.8613 8.41602 83.8418 8.35156 83.8301 8.32031C83.5488 8.59375 83.248 8.79883 82.9277 8.93555C82.6074 9.07227 82.2656 9.14062 81.9023 9.14062C81.2617 9.14062 80.7559 8.9668 80.3848 8.61914C80.0176 8.27148 79.834 7.83203 79.834 7.30078C79.834 6.94922 79.918 6.63672 80.0859 6.36328C80.2539 6.08594 80.4883 5.875 80.7891 5.73047C81.0938 5.58203 81.5312 5.45312 82.1016 5.34375C82.8711 5.19922 83.4043 5.06445 83.7012 4.93945V4.77539C83.7012 4.45898 83.623 4.23438 83.4668 4.10156C83.3105 3.96484 83.0156 3.89648 82.582 3.89648C82.2891 3.89648 82.0605 3.95508 81.8965 4.07227C81.7324 4.18555 81.5996 4.38672 81.498 4.67578ZM83.7012 6.01172C83.4902 6.08203 83.1562 6.16602 82.6992 6.26367C82.2422 6.36133 81.9434 6.45703 81.8027 6.55078C81.5879 6.70312 81.4805 6.89648 81.4805 7.13086C81.4805 7.36133 81.5664 7.56055 81.7383 7.72852C81.9102 7.89648 82.1289 7.98047 82.3945 7.98047C82.6914 7.98047 82.9746 7.88281 83.2441 7.6875C83.4434 7.53906 83.5742 7.35742 83.6367 7.14258C83.6797 7.00195 83.7012 6.73438 83.7012 6.33984V6.01172ZM92.373 4.61719L90.75 4.91016C90.6953 4.58594 90.5703 4.3418 90.375 4.17773C90.1836 4.01367 89.9336 3.93164 89.625 3.93164C89.2148 3.93164 88.8867 4.07422 88.6406 4.35938C88.3984 4.64062 88.2773 5.11328 88.2773 5.77734C88.2773 6.51562 88.4004 7.03711 88.6465 7.3418C88.8965 7.64648 89.2305 7.79883 89.6484 7.79883C89.9609 7.79883 90.2168 7.71094 90.416 7.53516C90.6152 7.35547 90.7559 7.04883 90.8379 6.61523L92.4551 6.89062C92.2871 7.63281 91.9648 8.19336 91.4883 8.57227C91.0117 8.95117 90.373 9.14062 89.5723 9.14062C88.6621 9.14062 87.9355 8.85352 87.3926 8.2793C86.8535 7.70508 86.584 6.91016 86.584 5.89453C86.584 4.86719 86.8555 4.06836 87.3984 3.49805C87.9414 2.92383 88.6758 2.63672 89.6016 2.63672C90.3594 2.63672 90.9609 2.80078 91.4062 3.12891C91.8555 3.45312 92.1777 3.94922 92.373 4.61719ZM93.5684 9V0.410156H95.2148V4.96875L97.1426 2.77734H99.1699L97.043 5.05078L99.3223 9H97.5469L95.9824 6.20508L95.2148 7.00781V9H93.5684Z" fill="#333333"/>
</svg>
